<?xml version="1.0" encoding="UTF-8"?>
<!DOCTYPE svg PUBLIC "-//W3C//DTD SVG 1.1//EN" "http://www.w3.org/Graphics/SVG/1.1/DTD/svg11.dtd">
<!-- Creator: CorelDRAW X5 -->
<svg xmlns="http://www.w3.org/2000/svg" xml:space="preserve" width="16.7301mm" height="16.7291mm" style="shape-rendering:geometricPrecision; text-rendering:geometricPrecision; image-rendering:optimizeQuality; fill-rule:evenodd; clip-rule:evenodd"
viewBox="0 0 2.38383 2.38369"
 xmlns:xlink="http://www.w3.org/1999/xlink">
 <defs>
  <style type="text/css">
   <![CDATA[
    .fil0 {fill:#FEFEFE}
   ]]>
  </style>
 </defs>
 <g id="Слой_x0020_1">
  <metadata id="CorelCorpID_0Corel-Layer"/>
  <path class="fil0" d="M1.20468 2.11722c-0.2148,0 -0.349693,-0.0492152 -0.508439,-0.143015 -0.0296089,-0.0174832 -0.0897957,-0.0621389 -0.113933,-0.0851364 -0.0376025,-0.0358071 -0.0615974,-0.054815 -0.0985159,-0.100525l-0.0498849 -0.0638772 -0.0443422 -0.0693915c-0.013978,-0.0251063 -0.026175,-0.0484315 -0.0388706,-0.0748773 -0.0855068,-0.178067 -0.107977,-0.412673 -0.0591039,-0.606342 0.0156309,-0.0618824 0.0336841,-0.116213 0.0582489,-0.169247 0.0485598,-0.104771 0.107122,-0.187656 0.187229,-0.267763 0.0873164,-0.0873164 0.151849,-0.128795 0.266039,-0.186374 0.0466077,-0.0234962 0.116042,-0.0452683 0.168919,-0.0585767 0.156366,-0.0393551 0.330785,-0.0333991 0.484344,0.0119975 0.0743073,0.0219573 0.130889,0.0475909 0.198927,0.0854498 0.0474911,0.0264172 0.0772853,0.0497282 0.118165,0.0808902 0.022855,0.017412 0.0540741,0.0477049 0.0742788,0.0678954 0.026232,0.0262462 0.0575365,0.0604005 0.0800496,0.0905651 0.206892,0.277267 0.248541,0.62951 0.106695,0.947984 -0.0307061,0.0689498 -0.0938139,0.170144 -0.14538,0.224304 -0.00608422,0.00638345 -0.00715288,0.00933294 -0.0128951,0.0155454 -0.0474199,0.0512813 -0.0967918,0.0926027 -0.153402,0.133554 -0.137016,0.0991144 -0.329788,0.166939 -0.518128,0.166939zm-1.20468 -0.948754c0,0.170045 0.016899,0.266024 0.0668837,0.416548 0.0326297,0.0982452 0.0907646,0.205681 0.149213,0.290247 0.0209314,0.0302929 0.0421478,0.0551142 0.0641907,0.0831558l0.0512386 0.0573513c0.0446414,0.0441427 0.0843099,0.0824718 0.135278,0.120659 0.0149185,0.0111568 0.0279276,0.0218149 0.04296,0.0320027 0.0873734,0.0592606 0.187827,0.114674 0.288708,0.148173 0.037118,0.0123252 0.0725262,0.0234535 0.113563,0.0337981 0.174134,0.0439432 0.382679,0.0446271 0.557369,0.000527204 0.091762,-0.0231685 0.182341,-0.055214 0.265611,-0.0989007 0.104985,-0.0550715 0.135449,-0.080192 0.220457,-0.146634 0.00860625,-0.00672542 0.0116982,-0.0109858 0.0192073,-0.0169988 0.00866325,-0.00693915 0.011171,-0.00924745 0.0190648,-0.0171128l0.0388279 -0.0361491c0.0816169,-0.0816027 0.173607,-0.203031 0.222395,-0.304981 0.0405662,-0.0848086 0.0710586,-0.161453 0.0944123,-0.254583 0.0454963,-0.181387 0.0461945,-0.384189 0.000527204,-0.565619 -0.0194781,-0.0773423 -0.0439289,-0.150267 -0.0758604,-0.216268 -0.0309341,-0.0639057 -0.0519082,-0.104344 -0.0907361,-0.162607 -0.0311193,-0.0466647 -0.0475339,-0.0638487 -0.0789951,-0.104543 -0.0710301,-0.0919473 -0.217849,-0.211808 -0.317177,-0.267079 -0.0163148,-0.00907646 -0.0302644,-0.016785 -0.046508,-0.0258758 -0.0692632,-0.0387709 -0.186117,-0.0797361 -0.267093,-0.0999836 -0.263574,-0.065929 -0.565334,-0.0337268 -0.804856,0.0870029 -0.0941843,0.0474769 -0.160413,0.0914771 -0.242514,0.15819 -0.0370325,0.0300791 -0.114631,0.10651 -0.145879,0.146264 -0.0111853,0.0142345 -0.0214016,0.0260467 -0.0324729,0.0398965 -0.011057,0.0138498 -0.0212877,0.0281698 -0.0317177,0.0432592 -0.00574225,0.00827853 -0.00910496,0.0136218 -0.0148615,0.0213161 -0.0318887,0.0426608 -0.0683371,0.115757 -0.091762,0.16416 -0.0639769,0.132186 -0.109473,0.318146 -0.109473,0.474783zm1.078 -0.731603l0 0.933251c0,0.0591894 0.0623098,0.121499 0.121499,0.121499 0.0657438,0 0.0766583,-0.017697 0.131046,-0.0499277l0.119832 -0.0740508c0.00718138,-0.00431738 0.0137073,-0.00789381 0.0210739,-0.0125389l0.0606997 -0.0375312c0.031846,-0.0189366 0.241118,-0.144867 0.258815,-0.162578 0.0880289,-0.0880146 0.0155739,-0.22694 -0.0873592,-0.22694 -0.0561116,0 -0.0673824,0.0145195 -0.108419,0.0389276 -0.0280416,0.0166711 -0.054758,0.0334846 -0.0837115,0.0507113 -0.0468642,0.0278848 -0.12519,0.0794369 -0.167209,0.101665 0,-0.155112 0,-0.310224 0,-0.465336 0,-0.0663422 0.00557127,-0.171185 -0.00294949,-0.229704 -0.00787957,-0.0542308 -0.0611699,-0.108946 -0.123722,-0.108946 -0.0425468,0 -0.072056,0.00857776 -0.101537,0.0380584 -0.0167565,0.0167565 -0.0380584,0.0515093 -0.0380584,0.0834408z"/>
 </g>
</svg>
