<?xml version="1.0" encoding="UTF-8"?>
<!DOCTYPE svg PUBLIC "-//W3C//DTD SVG 1.1//EN" "http://www.w3.org/Graphics/SVG/1.1/DTD/svg11.dtd">
<!-- Creator: CorelDRAW X5 -->
<svg xmlns="http://www.w3.org/2000/svg" xml:space="preserve" width="2.1045mm" height="3.1552mm" style="shape-rendering:geometricPrecision; text-rendering:geometricPrecision; image-rendering:optimizeQuality; fill-rule:evenodd; clip-rule:evenodd"
viewBox="0 0 0.0288695 0.043283"
 xmlns:xlink="http://www.w3.org/1999/xlink">
 <defs>
  <style type="text/css">
   <![CDATA[
    .fil0 {fill:#FEFEFE}
   ]]>
  </style>
 </defs>
 <g id="Слой_x0020_1">
  <metadata id="CorelCorpID_0Corel-Layer"/>
  <path class="fil0" d="M0.0144354 0.00829115c0.00339383,0 0.00614291,0.00275045 0.00614291,0.00614428 0,0.00339108 -0.00274908,0.00614154 -0.00614291,0.00614154 -0.00339383,0 -0.00614291,-0.00275045 -0.00614291,-0.00614154 0,-0.00339383 0.00274908,-0.00614428 0.00614291,-0.00614428zm0 -0.00829115c0.00797289,0 0.0144341,0.00646254 0.0144341,0.0144354 0,0.00283002 -0.000813476,0.00546936 -0.00222368,0.00769716l-0.00598104 0.0103612 -0.00622933 0.0107892 -0.00622933 -0.0107892 -0.00598241 -0.0103612c-0.00140884,-0.0022278 -0.00222368,-0.00486714 -0.00222368,-0.00769716 0,-0.00797289 0.00646254,-0.0144354 0.0144354,-0.0144354z"/>
 </g>
</svg>
