<?xml version="1.0" encoding="UTF-8"?>
<!DOCTYPE svg PUBLIC "-//W3C//DTD SVG 1.1//EN" "http://www.w3.org/Graphics/SVG/1.1/DTD/svg11.dtd">
<!-- Creator: CorelDRAW X5 -->
<svg xmlns="http://www.w3.org/2000/svg" xml:space="preserve" width="13.7814mm" height="3.1552mm" style="shape-rendering:geometricPrecision; text-rendering:geometricPrecision; image-rendering:optimizeQuality; fill-rule:evenodd; clip-rule:evenodd"
viewBox="0 0 1.46033 0.334336"
 xmlns:xlink="http://www.w3.org/1999/xlink">
 <defs>
  <style type="text/css">
   <![CDATA[
    .fil1 {fill:#FEFEFE}
    .fil0 {fill:#FEFEFE;fill-rule:nonzero}
   ]]>
  </style>
 </defs>
 <g id="Слой_x0020_1">
  <metadata id="CorelCorpID_0Corel-Layer"/>
  <path class="fil0" d="M0.209299 0.239912l0 0 0.00483194 -0.00483194c0.0201437,-0.0201437 0.0430106,-0.0174946 0.0684206,0.00791547 0.00975924,0.00975924 0.0146865,0.0178548 0.0149514,0.0244458 0.000264909,0.00659093 -0.00413258,0.0145064 -0.0131925,0.0235663l-0.00562666 0.00562666c-0.0058068,-0.0117831 -0.0122282,-0.0211927 -0.0193489,-0.0283134 -0.0136269,-0.0136375 -0.0303373,-0.0231318 -0.050036,-0.0284088zm-0.0629211 -0.205527c0.0799918,0 0.144831,0.0648391 0.144841,0.144831l-0.0226868 0c1.05963e-005,-0.067467 -0.0546878,-0.122155 -0.122155,-0.122155l0 -0.0226762zm0 0.0680286c0.0424172,0 0.0768023,0.0343852 0.0768023,0.0768023l0.0226868 0c0,-0.0549421 -0.0445471,-0.0994785 -0.0994891,-0.0994785l0 0.0226762zm-0.114705 -0.0519115l0 0 0.00624125 -0.00624125c0.00808501,-0.00809561 0.0154813,-0.0119633 0.0219768,-0.0114335 0.00660153,0.000445047 0.014517,0.00537235 0.0238312,0.0146865 0.0259505,0.0259399 0.0293731,0.0483617 0.0104692,0.0672656l-0.00606111 0.00607171c-0.00563726,-0.0191688 -0.0157462,-0.035964 -0.0301678,-0.0503856 -0.00809561,-0.00809561 -0.0169754,-0.0146865 -0.0262895,-0.0197834l0 -0.000180138zm-0.0316619 0.0608548l0 0c0.00456703,-0.0189993 0.0132878,-0.0373733 0.0258551,-0.055048 0.0095897,0.00606111 0.0182045,0.0129275 0.025675,0.020398 0.0127474,0.0127474 0.0227716,0.0294579 0.0301572,0.0503856l-0.00280803 0.00281863c-0.0130123,0.0130123 0.000180138,0.0392171 0.0395668,0.0786143 0.0408065,0.0407959 0.0677107,0.0545182 0.0807336,0.0415059l0.00280803 -0.00281863c0.0212881,0.00563726 0.038433,0.0148667 0.0514453,0.027879 0.00791547,0.00791547 0.0143369,0.0171449 0.019084,0.0276989 -0.0161806,0.011603 -0.0344699,0.0202178 -0.0549633,0.0259399 -0.0228563,-0.0103738 -0.0448438,-0.0230365 -0.0660364,-0.0380727 -0.0211927,-0.0150362 -0.0415907,-0.0322765 -0.0611197,-0.051795 -0.0199635,-0.0199635 -0.0375535,-0.0405416 -0.0524943,-0.0618191 -0.0150362,-0.0212033 -0.0276141,-0.0432649 -0.0379031,-0.0658669l0 0.000180138z"/>
  <path class="fil1" d="M1.34883 0.0640443c0.0262154,0 0.0474505,0.0212457 0.0474505,0.047461 0,0.0261942 -0.0212351,0.0474399 -0.0474505,0.0474399 -0.0262154,0 -0.0474505,-0.0212457 -0.0474505,-0.0474399 0,-0.0262154 0.0212351,-0.047461 0.0474505,-0.047461zm0 -0.0640443c0.061586,0 0.111495,0.0499194 0.111495,0.111505 0,0.0218603 -0.00628364,0.0422476 -0.0171767,0.0594561l-0.0462001 0.0800342 -0.048118 0.0833403 -0.048118 -0.0833403 -0.0462107 -0.0800342c-0.0108825,-0.0172085 -0.0171767,-0.0375958 -0.0171767,-0.0594561 0,-0.061586 0.0499194,-0.111505 0.111505,-0.111505z"/>
  <path class="fil1" d="M0.671469 0.043l0 0c0.00920823,0.0102043 0.0202072,0.00641079 0.0274869,0.0215954 0.0140508,0.0293413 0.00866781,0.0924849 -0.00981222,0.107987 -0.044049,-0.0272856 -0.0598164,-0.0828529 -0.0844211,-0.129583 -0.0264273,-0.00932479 -0.0811786,-0.00676047 -0.107987,0.00196032 0.0170601,0.0599224 0.0531725,0.118774 0.0903127,0.172773 0.0448014,0.0651675 0.109556,0.127972 0.215964,0.102096 0.00827575,-0.0225702 -0.00011656,-0.0595621 0.0235557,-0.0628258 0.0148985,-0.00206629 0.0267664,0.0143157 0.0333785,0.0215954 0.0163396,0.0179926 0.0290764,0.0411456 0.0530029,0.0471114 0.022051,0.0055101 0.107691,0.00514983 0.111908,-0.0156932 0.0037829,-0.018692 -0.0281439,-0.0497605 -0.0392595,-0.0608654 -0.014019,-0.0140296 -0.0462743,-0.0348408 -0.047122,-0.0530135 -0.00100665,-0.0214364 0.0368859,-0.0571249 0.047122,-0.0706776 0.0196986,-0.0260988 0.0334951,-0.0402767 0.0392595,-0.0805005 -0.0257279,-0.0136057 -0.0777136,-0.00216166 -0.117789,-0.00588097 -0.0151316,0.0209384 -0.0216589,0.045967 -0.0373097,0.072638 -0.0104586,0.0178443 -0.0621688,0.101979 -0.0647861,0.0274869 -0.000953671,-0.0269995 0.00633662,-0.074842 0,-0.100125 -0.0246577,-0.0209808 -0.113826,-0.0218179 -0.133503,0.00392065z"/>
 </g>
</svg>
