<?xml version="1.0" encoding="UTF-8"?>
<!DOCTYPE svg PUBLIC "-//W3C//DTD SVG 1.1//EN" "http://www.w3.org/Graphics/SVG/1.1/DTD/svg11.dtd">
<!-- Creator: CorelDRAW X5 -->
<svg xmlns="http://www.w3.org/2000/svg" xml:space="preserve" width="2.8077mm" height="2.793mm" style="shape-rendering:geometricPrecision; text-rendering:geometricPrecision; image-rendering:optimizeQuality; fill-rule:evenodd; clip-rule:evenodd"
viewBox="0 0 0.0606128 0.0602955"
 xmlns:xlink="http://www.w3.org/1999/xlink">
 <defs>
  <style type="text/css">
   <![CDATA[
    .fil0 {fill:#FEFEFE;fill-rule:nonzero}
   ]]>
  </style>
 </defs>
 <g id="Слой_x0020_1">
  <metadata id="CorelCorpID_0Corel-Layer"/>
  <path class="fil0" d="M0.0426407 0.0422003l0 0 0.000984416 -0.000984416c0.00410389,-0.00410389 0.00876259,-0.00356419 0.0139394,0.00161263 0.00198826,0.00198826 0.00299211,0.00363759 0.00304608,0.00498037 5.39702e-005,0.00134278 -0.000841934,0.00295541 -0.00268771,0.00480118l-0.00114633 0.00114633c-0.00118303,-0.00240059 -0.00249126,-0.00431761 -0.00394198,-0.00576833 -0.00277622,-0.00277838 -0.00618066,-0.00471267 -0.0101939,-0.00578776zm-0.012819 -0.0418722c0.0162968,0 0.0295066,0.0132097 0.0295087,0.0295066l-0.004622 0c2.15881e-006,-0.0137451 -0.0111416,-0.0248867 -0.0248867,-0.0248867l0 -0.00461984zm0 0.0138595c0.0086417,0 0.015647,0.00700533 0.015647,0.015647l0.004622 0c0,-0.0111934 -0.00907562,-0.0202669 -0.020269,-0.0202669l0 0.00461984zm-0.0233691 -0.010576l0 0 0.00127154 -0.00127154c0.00164717,-0.00164933 0.00315402,-0.00243729 0.00447736,-0.00232935 0.00134494,9.06699e-005 0.00295756,0.00109451 0.00485515,0.00299211 0.00528692,0.00528476 0.00598421,0.00985279 0.0021329,0.0137041l-0.00123484 0.001237c-0.00114848,-0.00390528 -0.00320799,-0.00732699 -0.00614612,-0.0102651 -0.00164933,-0.00164933 -0.00345841,-0.00299211 -0.005356,-0.00403049l0 -3.66997e-005zm-0.00645051 0.012398l0 0c0.000930445,-0.00387074 0.00270714,-0.00761411 0.00526749,-0.011215 0.00195372,0.00123484 0.00370883,0.00263374 0.00523079,0.0041557 0.00259704,0.00259704 0.00463927,0.00600148 0.00614396,0.0102651l-0.000572084 0.000574242c-0.00265101,0.00265101 3.66997e-005,0.00798974 0.00806098,0.0160162 0.00831356,0.0083114 0.0137948,0.0111071 0.0164479,0.00845604l0.000572084 -0.000574242c0.00433704,0.00114848 0.00782999,0.0030288 0.010481,0.00567982 0.00161263,0.00161263 0.00292086,0.00349295 0.00388801,0.00564312 -0.0032965,0.00236389 -0.0070226,0.004119 -0.0111977,0.00528476 -0.00465654,-0.00211347 -0.00913607,-0.00469324 -0.0134537,-0.00775659 -0.00431761,-0.00306335 -0.00847331,-0.00657572 -0.012452,-0.0105522 -0.00406719,-0.00406719 -0.00765081,-0.00825959 -0.0106947,-0.0125945 -0.00306335,-0.00431977 -0.00562585,-0.00881441 -0.00772205,-0.0134191l0 3.66997e-005z"/>
 </g>
</svg>
