<?xml version="1.0" encoding="UTF-8"?>
<!DOCTYPE svg PUBLIC "-//W3C//DTD SVG 1.1//EN" "http://www.w3.org/Graphics/SVG/1.1/DTD/svg11.dtd">
<!-- Creator: CorelDRAW X5 -->
<svg xmlns="http://www.w3.org/2000/svg" xml:space="preserve" width="4.987mm" height="2.8806mm" style="shape-rendering:geometricPrecision; text-rendering:geometricPrecision; image-rendering:optimizeQuality; fill-rule:evenodd; clip-rule:evenodd"
viewBox="0 0 0.178366 0.103028"
 xmlns:xlink="http://www.w3.org/1999/xlink">
 <defs>
  <style type="text/css">
   <![CDATA[
    .fil0 {fill:#FEFEFE}
   ]]>
  </style>
 </defs>
 <g id="Слой_x0020_1">
  <metadata id="CorelCorpID_0Corel-Layer"/>
  <path class="fil0" d="M0.0589783 0.00658454l0 0c0.00310808,0.00344428 0.0068206,0.00216385 0.00927773,0.00728914 0.00474259,0.00990364 0.00292567,0.0312167 -0.00331194,0.0364493 -0.014868,-0.00920978 -0.02019,-0.0279655 -0.0284949,-0.0437384 -0.00892007,-0.00314742 -0.0274004,-0.00228188 -0.0364493,0.000661673 0.00575835,0.0202257 0.0179474,0.0400903 0.0304835,0.0583167 0.0151219,0.0219962 0.0369786,0.0431948 0.0728949,0.0344607 0.00279333,-0.00761819 -3.93427e-005,-0.0201041 0.00795081,-0.0212057 0.00502872,-0.000697439 0.00903452,0.004832 0.0112663,0.00728914 0.00551514,0.00607309 0.00981423,0.013888 0.0178902,0.0159016 0.00744293,0.00185984 0.0363491,0.00173823 0.0377726,-0.00529696 0.00127685,-0.00630914 -0.00949948,-0.0167958 -0.0132514,-0.0205441 -0.00473186,-0.00473544 -0.0156191,-0.0117599 -0.0159052,-0.0178938 -0.000339778,-0.00723549 0.0124502,-0.0192815 0.0159052,-0.023856 0.00664892,-0.0088092 0.0113057,-0.0135947 0.0132514,-0.0271715 -0.00868402,-0.00459237 -0.0262309,-0.000729629 -0.0397576,-0.00198502 -0.0051074,0.00706739 -0.0073106,0.0155153 -0.0125933,0.0245177 -0.00353012,0.00602302 -0.020984,0.0344213 -0.0218674,0.00927773 -0.000321895,-0.00911321 0.00213881,-0.0252616 0,-0.0337954 -0.00832278,-0.00708169 -0.03842,-0.00736425 -0.0450617,0.00132335z"/>
 </g>
</svg>
